# xmcd CD database file
#
# Track frame offsets:
#	150
#	42668
#	77682
#	115266
#	151689
#	184685
#
# Disc length: 2860 seconds
#
# Revision: 0
# Processed by: cddbd v1.5.2PL0 Copyright (c) Steve Scherf et al.
# Submitted via: CDex 1.70beta2
#
DISCID=410b2a06
DTITLE=Pat Metheny Group - Travels CD1
DYEAR=1986
DGENRE=Jazz
TTITLE0=Are You Going With Me? 
TTITLE1=The Fields, The Sky 
TTITLE2=Goodbye 
TTITLE3=Phase Dance
TTITLE4=Straight On Red 
TTITLE5=Farmer's Trust 
EXTD=YEAR: 1986
EXTT0=
EXTT1=
EXTT2=
EXTT3=
EXTT4=
EXTT5=
PLAYORDER=
